<svg xmlns="http://www.w3.org/2000/svg" viewBox="0 0 597.68 141.7"><title>black horizontal</title><g id="Layer_2" data-name="Layer 2"><g id="Layer_1-2" data-name="Layer 1"><rect x="539.27" y="54.57" width="48.39" height="48.39" transform="translate(220.73 -375.36) rotate(45)"/><path d="M234.56,46.8c0-29.28-11.12-41.23-55.46-41.23H127.68V140.76h38.46l-.42-52.66h3.1L197,140.76h44L199.14,83.62C222.61,83.62,234.56,76,234.56,46.8ZM182.67,59.89H166.14V32.77H184c10.38,0,16,5.16,16,13.56C200,54.94,194.35,59.89,182.67,59.89Z"/><rect x="252.35" y="8.32" width="37.74" height="132.44"/><path d="M82.83,69.11c14,0,19.64-14.31,19.64-28.49,0-19.26-8.87-35-53.21-35H0V140.76H69.93c37.08,0,45.15-20.68,45.15-39.8C115.08,85,104.7,69.11,82.83,69.11ZM38.54,32.72H53.75c10.39,0,16,3.89,16,12.32,0,8.66-5.62,13-17.3,13H38.54Zm20.62,79.77H38.54V87.18H58.73C70.84,87.18,78,90.43,78,99.73,78,108.6,72.14,112.49,59.16,112.49Z"/><polygon points="522.58 98.88 503.78 78.61 527.4 52.91 546.77 31.82 531.21 16.54 520.04 5.57 516.84 9.16 470.02 63.4 470.02 5.57 430.19 5.57 430.19 140.76 470.02 140.76 470.02 93.61 511.29 140.76 518.2 140.76 561.42 140.76 522.58 98.88"/><path d="M374.49,55.37c-16.08-3.15-32.74-4.63-32.74-13.84,0-5.41,9.11-6.8,17.32-7.14,23.36-1,38.25,8.26,38.25,8.26l16-30.76C400.38,5.41,382.86,0,358.85,0c-37,0-55.37,17.3-55.37,43.69,0,27.47,27.42,39.09,47.75,42.85,18.65,3.45,25.31,6.49,25.31,13,0,5.62-6.49,7.78-16.22,7.78-17.09,0-29.35-2.68-43.84-9.81l-12.4,32.09c12.33,6.71,33.31,12.12,55.59,12.12,39.15,0,57.82-16.41,57.82-43.44C417.49,72.3,396.91,59.77,374.49,55.37Z"/></g></g></svg>