<svg xmlns="http://www.w3.org/2000/svg" viewBox="0 0 537.08 537"><defs><style>.cls-1{fill:#00acdc;}.cls-2{fill:#652d90;}</style></defs><title>color</title><g id="Layer_2" data-name="Layer 2"><g id="Layer_1-2" data-name="Layer 1"><rect class="cls-1" x="226.23" y="193.41" width="84.61" height="84.61" transform="translate(-88.02 258.92) rotate(-45)"/><rect class="cls-2" x="355.16" y="194.49" width="181.91" height="61.59"/><path class="cls-2" d="M411.93,374.94c-26.24-5.14-53.44-7.56-53.44-22.59,0-8.83,14.87-11.1,28.27-11.66,38.13-1.57,62.43,13.48,62.43,13.48L475.38,304c-21.18-10.59-49.78-19.42-89-19.42C326,284.56,296,312.81,296,355.88c0,44.83,44.75,63.8,77.94,69.94,30.43,5.62,41.31,10.59,41.31,21.18,0,9.18-10.59,12.7-26.48,12.7-27.89,0-47.9-4.38-71.56-16L297,496.07c20.12,10.95,54.37,19.77,90.73,19.77,63.9,0,94.38-26.78,94.38-70.9C482.12,402.57,448.52,382.12,411.93,374.94Z"/><path class="cls-2" d="M53.62,283.73H85.36c77.67,0,93.2-30.71,93.2-65,0-28.6-16.17-51.19-63.31-51.19,34.17,0,42.72-21.18,42.72-47.31,0-31.42-14.48-57.2-86.85-57.2H0V283.73Zm0-171.23H87.34c17,0,26.13,6.36,26.13,20.13,0,14.12-9.18,21.18-28.25,21.18H53.62Zm0,80.49H86.57c19.77,0,31.43,5.3,31.43,20.48,0,14.48-9.54,20.83-30.72,20.83H53.62Z"/><path class="cls-2" d="M343.9,175.19c31.43,0,78.2-24,78.2-96.33V0H201.45V61.36h76.21l-77.11,52.57v84.5l81.29-78.51C281.84,148,307.26,175.19,343.9,175.19Zm-27-113.83h55.83V95.08c0,17-15,26.13-28.78,26.13-14.12,0-27-9.18-27-28.25Z"/><polygon class="cls-2" points="194.72 403.03 114.34 309.11 108.85 302.89 89.69 321.88 62.97 348.35 96.22 384.86 136.76 429.38 104.49 464.48 37.82 537 112.01 537 123.88 537 194.72 455.34 194.72 537 263.08 537 263.08 305.28 194.72 305.28 194.72 403.03"/></g></g></svg>