<svg xmlns="http://www.w3.org/2000/svg" viewBox="0 0 766 766"><defs><style>.cls-1{fill:#fff;}</style></defs><title>rounded black icon</title><g id="Layer_2" data-name="Layer 2"><g id="Layer_1-2" data-name="Layer 1"><path d="M0,85.71V681.84A84.31,84.31,0,0,0,84.62,766c147.5-.28,450-1.24,597.2-1.72A84.31,84.31,0,0,0,766,680.11V84.16A84.32,84.32,0,0,0,681.31,0L84.25,1.55A84.31,84.31,0,0,0,0,85.71Z"/><rect class="cls-1" x="148.19" y="327.36" width="118.15" height="118.15" transform="translate(-212.56 259.8) rotate(-45.01)"/><polygon class="cls-1" points="438.88 199.52 438.88 349.34 316.31 206.03 249.76 268.32 357.92 381.14 214.42 548.51 324.9 548.51 438.88 408.37 438.88 548.51 527.31 548.51 527.31 199.52 438.88 199.52"/></g></g></svg>