<svg xmlns="http://www.w3.org/2000/svg" viewBox="0 0 766 766"><defs><style>.cls-1{fill:#652d90;}.cls-2{fill:#00acdc;}.cls-3{fill:#fff;}</style></defs><title>rounded color icon</title><g id="Layer_2" data-name="Layer 2"><g id="Layer_1-2" data-name="Layer 1"><path class="cls-1" d="M0,85.71V681.84A84.31,84.31,0,0,0,84.62,766c147.5-.28,450-1.24,597.2-1.72A84.31,84.31,0,0,0,766,680.11V84.16A84.32,84.32,0,0,0,681.31,0L84.25,1.55A84.31,84.31,0,0,0,0,85.71Z"/><polygon class="cls-2" points="150.7 385.71 234.23 302.48 317.76 385.71 234.23 468.94 150.7 385.71"/><polygon class="cls-3" points="465.84 199.52 465.84 348.75 343.28 206.01 276.73 268.05 384.88 380.44 241.39 547.15 351.87 547.15 465.84 407.55 465.84 547.15 554.28 547.15 554.28 199.52 465.84 199.52"/></g></g></svg>