<svg xmlns="http://www.w3.org/2000/svg" viewBox="0 0 766 766"><defs><style>.cls-1{fill:#fff;}</style></defs><title>rounded square black</title><g id="Layer_2" data-name="Layer 2"><g id="Layer_1-2" data-name="Layer 1"><path d="M0,85.71V681.84A84.31,84.31,0,0,0,84.62,766c147.5-.28,450-1.24,597.2-1.72A84.31,84.31,0,0,0,766,680.11V84.16A84.32,84.32,0,0,0,681.31,0L84.25,1.55A84.31,84.31,0,0,0,0,85.71Z"/><polygon class="cls-1" points="654.93 417.05 620.75 383 654.93 348.95 689.1 383 654.93 417.05"/><path class="cls-1" d="M326.45,356.76c0-29.13-11.1-41-55.39-41H219.71V450.26h38.41l-.42-52.4h3.1L289,450.26h43.94L291.08,393.4C314.52,393.4,326.45,385.77,326.45,356.76Zm-51.82,13H258.12v-27h17.81c10.37,0,16,5.13,16,13.49C291.91,364.87,286.3,369.78,274.63,369.78Z"/><rect class="cls-1" x="344.22" y="317.11" width="37.69" height="131.79"/><path class="cls-1" d="M174.93,379c13.94,0,19.6-14.24,19.6-28.36,0-19.16-8.85-34.87-53.14-34.87H92.2V450.26H162c37,0,45.09-20.58,45.09-39.6C207.13,394.76,196.77,379,174.93,379Zm-44.24-36.22h15.19c10.37,0,16,3.87,16,12.27,0,8.61-5.62,12.91-17.28,12.91h-13.9Zm20.59,79.38H130.69V397h20.16c12.1,0,19.23,3.23,19.23,12.48C170.08,418.26,164.24,422.13,151.28,422.13Z"/><polygon class="cls-1" points="614.1 408.59 595.33 388.42 618.91 362.84 638.26 341.86 622.71 326.65 611.56 315.74 608.37 319.31 561.61 373.28 561.61 315.74 521.83 315.74 521.83 450.26 561.61 450.26 561.61 403.34 602.82 450.26 609.72 450.26 652.89 450.26 614.1 408.59"/><path class="cls-1" d="M466.2,367.6c-16.05-3.14-32.7-4.61-32.7-13.78,0-5.38,9.1-6.76,17.3-7.1,23.33-1,38.2,8.21,38.2,8.21l16-30.6c-13-6.45-30.46-11.83-54.43-11.83-36.94,0-55.3,17.22-55.3,43.48,0,27.33,27.38,38.89,47.68,42.63,18.62,3.43,25.28,6.46,25.28,12.92,0,5.59-6.48,7.74-16.2,7.74-17.07,0-29.31-2.67-43.79-9.77l-12.38,31.94c12.32,6.68,33.27,12.06,55.52,12.06,39.1,0,57.75-16.33,57.75-43.23C509.15,384.44,488.59,372,466.2,367.6Z"/></g></g></svg>