<svg xmlns="http://www.w3.org/2000/svg" viewBox="0 0 766 766"><defs><style>.cls-1{fill:#652d90;}.cls-2{fill:#00acdc;}.cls-3{fill:#fff;}</style></defs><title>rounded quare color</title><g id="Layer_2" data-name="Layer 2"><g id="Layer_1-2" data-name="Layer 1"><path class="cls-1" d="M0,85.71V681.84A84.31,84.31,0,0,0,84.62,766c147.5-.28,450-1.24,597.2-1.72A84.31,84.31,0,0,0,766,680.11V84.16A84.32,84.32,0,0,0,681.31,0L84.25,1.55A84.31,84.31,0,0,0,0,85.71Z"/><polygon class="cls-2" points="442.83 349.76 383.08 409.3 323.33 349.76 383.08 290.23 442.83 349.76"/><rect class="cls-3" x="469.59" y="308.74" width="181.67" height="61.29"/><path class="cls-3" d="M526.29,488.31c-26.21-5.12-53.38-7.53-53.38-22.49,0-8.78,14.85-11.05,28.24-11.6,38.08-1.56,62.34,13.41,62.34,13.41l26.16-49.94c-21.16-10.54-49.72-19.32-88.85-19.32-60.29,0-90.26,28.1-90.26,71,0,44.62,44.69,63.49,77.84,69.6,30.38,5.59,41.25,10.54,41.25,21.07,0,9.14-10.58,12.65-26.45,12.65-27.85,0-47.83-4.37-71.46-15.95l-20.21,52.13c20.1,10.9,54.3,19.68,90.62,19.68,63.81,0,94.25-26.65,94.25-70.56C596.38,515.79,562.83,495.44,526.29,488.31Z"/><path class="cls-3" d="M168.45,397.54h31.69c77.57,0,93.08-30.56,93.08-64.64,0-28.46-16.15-50.94-63.23-50.94,34.13,0,42.66-21.08,42.66-47.07,0-31.27-14.45-56.92-86.73-56.92h-71V397.54Zm0-170.38h33.67c16.92,0,26.09,6.32,26.09,20,0,14.05-9.17,21.08-28.21,21.08H168.45Zm0,80.09h32.9c19.75,0,31.38,5.27,31.38,20.38,0,14.4-9.52,20.73-30.67,20.73H168.45Z"/><path class="cls-3" d="M458.35,289.54c31.38,0,78.1-23.84,78.1-95.86V115.21H316.08v61.06h76.11l-77,52.31v84.08l81.18-78.13C396.36,262.45,421.75,289.54,458.35,289.54Zm-27-113.27h55.75v33.55c0,16.86-15,26-28.73,26-14.1,0-27-9.14-27-28.11Z"/><polygon class="cls-3" points="309.36 516.26 229.09 422.8 223.6 416.61 204.46 435.5 177.78 461.84 210.99 498.17 251.47 542.47 219.24 577.4 152.66 649.56 226.76 649.56 238.61 649.56 309.36 568.31 309.36 649.56 377.63 649.56 377.63 418.99 309.36 418.99 309.36 516.26"/></g></g></svg>