<svg xmlns="http://www.w3.org/2000/svg" viewBox="0 0 766 766"><defs><style>.cls-1{fill:#652d90;}.cls-2{fill:#00acdc;}.cls-3{fill:#fff;}</style></defs><title>rounded colour horizontal</title><g id="Layer_2" data-name="Layer 2"><g id="Layer_1-2" data-name="Layer 1"><path class="cls-1" d="M0,85.71V681.84A84.31,84.31,0,0,0,84.62,766c147.5-.28,450-1.24,597.2-1.72A84.31,84.31,0,0,0,766,680.11V84.16A84.32,84.32,0,0,0,681.31,0L84.25,1.55A84.31,84.31,0,0,0,0,85.71Z"/><polygon class="cls-2" points="654.93 427.18 620.75 393.13 654.93 359.08 689.1 393.13 654.93 427.18"/><path class="cls-3" d="M326.45,361.32c0-29.14-11.1-41-55.39-41H219.71V454.82h38.41l-.42-52.41h3.1L289,454.82h43.94L291.08,398C314.52,398,326.45,390.32,326.45,361.32Zm-51.82,13H258.12v-27h17.81c10.37,0,16,5.13,16,13.49C291.91,369.42,286.3,374.34,274.63,374.34Z"/><rect class="cls-3" x="344.22" y="323.03" width="37.69" height="131.79"/><path class="cls-3" d="M174.93,383.52c13.94,0,19.6-14.23,19.6-28.35,0-19.16-8.85-34.87-53.14-34.87H92.2V454.82H162c37,0,45.09-20.58,45.09-39.6C207.13,399.31,196.77,383.52,174.93,383.52Zm-44.24-36.21h15.19c10.37,0,16,3.87,16,12.26,0,8.61-5.62,12.92-17.28,12.92h-13.9Zm20.59,79.38H130.69V401.5h20.16c12.1,0,19.23,3.23,19.23,12.49C170.08,422.81,164.24,426.69,151.28,426.69Z"/><polygon class="cls-3" points="614.1 413.15 595.33 392.98 618.91 367.4 638.26 346.41 622.71 331.21 611.56 320.3 608.37 323.87 561.61 377.84 561.61 320.3 521.83 320.3 521.83 454.82 561.61 454.82 561.61 407.9 602.82 454.82 609.72 454.82 652.89 454.82 614.1 413.15"/><path class="cls-3" d="M466.2,369.85c-16.05-3.13-32.7-4.61-32.7-13.77,0-5.38,9.1-6.77,17.3-7.11,23.33-1,38.2,8.22,38.2,8.22l16-30.6c-13-6.46-30.46-11.84-54.43-11.84-36.94,0-55.3,17.22-55.3,43.48,0,27.33,27.38,38.9,47.68,42.64,18.62,3.42,25.28,6.45,25.28,12.91,0,5.6-6.48,7.75-16.2,7.75-17.07,0-29.31-2.68-43.79-9.77L395.88,443.7c12.32,6.67,33.27,12.05,55.52,12.05,39.1,0,57.75-16.32,57.75-43.23C509.15,386.69,488.59,374.23,466.2,369.85Z"/></g></g></svg>