<svg xmlns="http://www.w3.org/2000/svg" viewBox="0 0 766 766"><defs><style>.cls-1{fill:#fff;}</style></defs><title>square black horizontal</title><g id="Layer_2" data-name="Layer 2"><g id="Layer_1-2" data-name="Layer 1"><path d="M0,2V765.91c.35.6,766-2,766-2V0Z"/><polygon class="cls-1" points="654.93 429.36 620.75 395.32 654.93 361.29 689.1 395.32 654.93 429.36"/><path class="cls-1" d="M326.45,363.52c0-29.12-11.1-41-55.39-41H219.71V457h38.41l-.42-52.39h3.1L289,457h43.94l-41.81-56.84C314.52,400.15,326.45,392.52,326.45,363.52Zm-51.82,13H258.12v-27h17.81c10.37,0,16,5.13,16,13.49C291.91,371.62,286.3,376.54,274.63,376.54Z"/><rect class="cls-1" x="344.22" y="325.25" width="37.69" height="131.74"/><path class="cls-1" d="M174.93,385.72c13.94,0,19.6-14.23,19.6-28.35,0-19.15-8.85-34.85-53.14-34.85H92.2V457H162c37,0,45.09-20.57,45.09-39.59C207.13,401.5,196.77,385.72,174.93,385.72Zm-44.24-36.2h15.19c10.37,0,16,3.87,16,12.26,0,8.6-5.62,12.91-17.28,12.91h-13.9Zm20.59,79.35H130.69V403.69h20.16c12.1,0,19.23,3.23,19.23,12.48C170.08,425,164.24,428.87,151.28,428.87Z"/><polygon class="cls-1" points="614.1 415.33 595.33 395.17 618.91 369.6 638.26 348.62 622.71 333.42 611.56 322.52 608.37 326.09 561.61 380.04 561.61 322.52 521.83 322.52 521.83 456.99 561.61 456.99 561.61 410.08 602.82 456.99 609.72 456.99 652.89 456.99 614.1 415.33"/><path class="cls-1" d="M466.2,372.05c-16.05-3.13-32.7-4.61-32.7-13.77,0-5.38,9.1-6.76,17.3-7.1,23.33-1,38.2,8.21,38.2,8.21l16-30.59c-13-6.45-30.46-11.83-54.43-11.83-36.94,0-55.3,17.22-55.3,43.46,0,27.33,27.38,38.89,47.68,42.63,18.62,3.42,25.28,6.45,25.28,12.9,0,5.6-6.48,7.75-16.2,7.75-17.07,0-29.31-2.67-43.79-9.77l-12.38,31.93c12.32,6.67,33.27,12.05,55.52,12.05,39.1,0,57.75-16.32,57.75-43.21C509.15,388.89,488.59,376.43,466.2,372.05Z"/></g></g></svg>