<svg xmlns="http://www.w3.org/2000/svg" viewBox="0 0 766 766"><defs><style>.cls-1{fill:#fff;}.cls-2{fill:#652d90;}.cls-3{fill:#00acdc;}</style></defs><title>square color </title><g id="Layer_2" data-name="Layer 2"><g id="Layer_1-2" data-name="Layer 1"><path class="cls-1" d="M726.44,66.27,711.28,51.66a39.19,39.19,0,0,0-27.16-11l-603-.58A39.2,39.2,0,0,0,53,52L38.32,67a38.88,38.88,0,0,0-11,27.09V672.18a38.9,38.9,0,0,0,11.9,28l15.14,14.6a39.19,39.19,0,0,0,27.2,11h603a39.23,39.23,0,0,0,28.1-11.85l14.65-15.08a38.86,38.86,0,0,0,11-27.09V94.25A38.9,38.9,0,0,0,726.44,66.27Z"/><path class="cls-2" d="M465,244.65c13.56,0,28.32-9,28.32-25.61V186H438.33v31C438.33,235.65,451.06,244.65,465,244.65Z"/><path class="cls-2" d="M0,2V765.91c.35.59,766-1.87,766-2V0ZM126.45,187.66h70c71.24,0,85.49,25.26,85.49,56.07,0,25.61-8.41,46.38-42.05,46.38,46.4,0,62.32,22.15,62.32,50.19,0,33.57-15.29,63.68-91.74,63.68h-84Zm259,464.63h-67.3V572.23l-69.72,80.06H163.67l65.63-71.1,31.76-34.41-39.9-43.65-32.73-35.8,26.3-25.94,18.86-18.62,5.41,6.1L318.11,521V425.12h67.3ZM323.85,320.36V237.51L399.76,186h-75V125.82h217.2v77.32c0,70.95-46.05,94.44-77,94.44-36.07,0-61.09-26.69-61.09-54.19ZM508.11,631.54c-35.79,0-69.5-8.65-89.31-19.38l19.92-51.37c23.29,11.42,43,15.72,70.44,15.72,15.63,0,26.06-3.46,26.06-12.46,0-10.38-10.71-15.25-40.66-20.77-32.67-6-76.72-24.61-76.72-68.56,0-42.23,29.54-69.92,89-69.92,38.58,0,66.73,8.65,87.58,19L568.6,473s-23.92-14.75-61.45-13.21c-13.19.54-27.83,2.77-27.83,11.42,0,14.74,26.78,17.12,52.61,22.16,36,7,69.08,27.08,69.08,68.62C601,605.29,571,631.54,508.11,631.54Zm147-254.66H476.05V316.5H655.11Z"/><path class="cls-2" d="M179.23,236.12h33.19c16.68,0,25.72,6.23,25.72,19.73,0,13.84-9,20.76-27.81,20.76h-31.1Z"/><path class="cls-2" d="M179.23,315h32.43c19.46,0,30.93,5.19,30.93,20.07,0,14.2-9.38,20.43-30.23,20.43H179.23Z"/><polygon class="cls-3" points="390.78 298.26 331.88 356.91 390.78 415.57 449.67 356.91 390.78 298.26"/></g></g></svg>